{
    "asset" : {
        "generator" : "Khronos glTF Blender I/O v1.1.46",
        "version" : "2.0"
    },
    "extensionsUsed" : [
        "KHR_materials_unlit"
    ],
    "scene" : 0,
    "scenes" : [
        {
            "name" : "Scene",
            "nodes" : [
                0,
                1,
                2,
                3
            ]
        }
    ],
    "nodes" : [
        {
            "mesh" : 0,
            "name" : "Glass Inside"
        },
        {
            "mesh" : 1,
            "name" : "Glass Outside"
        },
        {
            "mesh" : 2,
            "name" : "Water"
        },
        {
            "mesh" : 3,
            "name" : "Land",
            "translation" : [
                0,
                5.00191068649292,
                0
            ]
        }
    ],
    "materials" : [
        {
            "alphaMode" : "BLEND",
            "name" : "Glass Inside",
            "pbrMetallicRoughness" : {}
        },
        {
            "alphaMode" : "BLEND",
            "extensions" : {
                "KHR_materials_unlit" : {}
            },
            "name" : "Glass Outside",
            "pbrMetallicRoughness" : {
                "baseColorFactor" : [
                    1,
                    0.02586563304066658,
                    0,
                    1
                ]
            }
        },
        {
            "emissiveFactor" : [
                0,
                0,
                0
            ],
            "name" : "Water",
            "pbrMetallicRoughness" : {
                "baseColorFactor" : [
                    0.800000011920929,
                    0.800000011920929,
                    0.800000011920929,
                    1
                ],
                "metallicFactor" : 0,
                "roughnessFactor" : 0.5
            }
        }
    ],
    "meshes" : [
        {
            "name" : "Glass Inside",
            "primitives" : [
                {
                    "attributes" : {
                        "POSITION" : 0,
                        "NORMAL" : 1,
                        "TEXCOORD_0" : 2
                    },
                    "indices" : 3,
                    "material" : 0
                }
            ]
        },
        {
            "name" : "Glass Outside",
            "primitives" : [
                {
                    "attributes" : {
                        "POSITION" : 4,
                        "NORMAL" : 5,
                        "TEXCOORD_0" : 6
                    },
                    "indices" : 7,
                    "material" : 1
                }
            ]
        },
        {
            "name" : "Water",
            "primitives" : [
                {
                    "attributes" : {
                        "POSITION" : 8,
                        "NORMAL" : 9,
                        "TEXCOORD_0" : 10,
                        "COLOR_0" : 11
                    },
                    "indices" : 12,
                    "material" : 2
                }
            ]
        },
        {
            "name" : "Land",
            "primitives" : [
                {
                    "attributes" : {
                        "POSITION" : 13,
                        "NORMAL" : 14,
                        "TEXCOORD_0" : 15,
                        "COLOR_0" : 16
                    },
                    "indices" : 17
                }
            ]
        }
    ],
    "accessors" : [
        {
            "bufferView" : 0,
            "componentType" : 5126,
            "count" : 1273,
            "max" : [
                10.000009536743164,
                20,
                10.000016212463379
            ],
            "min" : [
                -10.000004768371582,
                -1.9073486328125e-06,
                -10
            ],
            "type" : "VEC3"
        },
        {
            "bufferView" : 1,
            "componentType" : 5126,
            "count" : 1273,
            "type" : "VEC3"
        },
        {
            "bufferView" : 2,
            "componentType" : 5126,
            "count" : 1273,
            "type" : "VEC2"
        },
        {
            "bufferView" : 3,
            "componentType" : 5123,
            "count" : 6522,
            "type" : "SCALAR"
        },
        {
            "bufferView" : 4,
            "componentType" : 5126,
            "count" : 1271,
            "max" : [
                10.304771423339844,
                20.30036163330078,
                10.304778099060059
            ],
            "min" : [
                -10.304766654968262,
                -0.2955961227416992,
                -10.30476188659668
            ],
            "type" : "VEC3"
        },
        {
            "bufferView" : 5,
            "componentType" : 5126,
            "count" : 1271,
            "type" : "VEC3"
        },
        {
            "bufferView" : 6,
            "componentType" : 5126,
            "count" : 1271,
            "type" : "VEC2"
        },
        {
            "bufferView" : 7,
            "componentType" : 5123,
            "count" : 6522,
            "type" : "SCALAR"
        },
        {
            "bufferView" : 8,
            "componentType" : 5126,
            "count" : 1691,
            "max" : [
                10.000000953674316,
                4.498194694519043,
                10
            ],
            "min" : [
                -9.999999046325684,
                1.4028434753417969,
                -10
            ],
            "type" : "VEC3"
        },
        {
            "bufferView" : 9,
            "componentType" : 5126,
            "count" : 1691,
            "type" : "VEC3"
        },
        {
            "bufferView" : 10,
            "componentType" : 5126,
            "count" : 1691,
            "type" : "VEC2"
        },
        {
            "bufferView" : 11,
            "componentType" : 5126,
            "count" : 1691,
            "type" : "VEC4"
        },
        {
            "bufferView" : 12,
            "componentType" : 5123,
            "count" : 6345,
            "type" : "SCALAR"
        },
        {
            "bufferView" : 13,
            "componentType" : 5126,
            "count" : 2052,
            "max" : [
                10,
                1.8714414834976196,
                10
            ],
            "min" : [
                -10,
                -4.981489658355713,
                -10
            ],
            "type" : "VEC3"
        },
        {
            "bufferView" : 14,
            "componentType" : 5126,
            "count" : 2052,
            "type" : "VEC3"
        },
        {
            "bufferView" : 15,
            "componentType" : 5126,
            "count" : 2052,
            "type" : "VEC2"
        },
        {
            "bufferView" : 16,
            "componentType" : 5126,
            "count" : 2052,
            "type" : "VEC4"
        },
        {
            "bufferView" : 17,
            "componentType" : 5123,
            "count" : 2784,
            "type" : "SCALAR"
        }
    ],
    "bufferViews" : [
        {
            "buffer" : 0,
            "byteLength" : 15276,
            "byteOffset" : 0
        },
        {
            "buffer" : 0,
            "byteLength" : 15276,
            "byteOffset" : 15276
        },
        {
            "buffer" : 0,
            "byteLength" : 10184,
            "byteOffset" : 30552
        },
        {
            "buffer" : 0,
            "byteLength" : 13044,
            "byteOffset" : 40736
        },
        {
            "buffer" : 0,
            "byteLength" : 15252,
            "byteOffset" : 53780
        },
        {
            "buffer" : 0,
            "byteLength" : 15252,
            "byteOffset" : 69032
        },
        {
            "buffer" : 0,
            "byteLength" : 10168,
            "byteOffset" : 84284
        },
        {
            "buffer" : 0,
            "byteLength" : 13044,
            "byteOffset" : 94452
        },
        {
            "buffer" : 0,
            "byteLength" : 20292,
            "byteOffset" : 107496
        },
        {
            "buffer" : 0,
            "byteLength" : 20292,
            "byteOffset" : 127788
        },
        {
            "buffer" : 0,
            "byteLength" : 13528,
            "byteOffset" : 148080
        },
        {
            "buffer" : 0,
            "byteLength" : 27056,
            "byteOffset" : 161608
        },
        {
            "buffer" : 0,
            "byteLength" : 12690,
            "byteOffset" : 188664
        },
        {
            "buffer" : 0,
            "byteLength" : 24624,
            "byteOffset" : 201356
        },
        {
            "buffer" : 0,
            "byteLength" : 24624,
            "byteOffset" : 225980
        },
        {
            "buffer" : 0,
            "byteLength" : 16416,
            "byteOffset" : 250604
        },
        {
            "buffer" : 0,
            "byteLength" : 32832,
            "byteOffset" : 267020
        },
        {
            "buffer" : 0,
            "byteLength" : 5568,
            "byteOffset" : 299852
        }
    ],
    "buffers" : [
        {
            "byteLength" : 305420,
            "uri" : "globe.bin"
        }
    ]
}
