{
    "asset" : {
        "generator" : "Khronos glTF Blender I/O v1.1.46",
        "version" : "2.0"
    },
    "scene" : 0,
    "scenes" : [
        {
            "name" : "Scene",
            "nodes" : [
                0
            ]
        }
    ],
    "nodes" : [
        {
            "mesh" : 0,
            "name" : "Plane"
        }
    ],
    "meshes" : [
        {
            "name" : "Plane",
            "primitives" : [
                {
                    "attributes" : {
                        "POSITION" : 0,
                        "NORMAL" : 1,
                        "TEXCOORD_0" : 2,
                        "COLOR_0" : 3
                    },
                    "indices" : 4
                }
            ]
        }
    ],
    "accessors" : [
        {
            "bufferView" : 0,
            "componentType" : 5126,
            "count" : 2318,
            "max" : [
                5,
                3.000000238418579,
                5
            ],
            "min" : [
                -5,
                -2.384185791015625e-07,
                -5
            ],
            "type" : "VEC3"
        },
        {
            "bufferView" : 1,
            "componentType" : 5126,
            "count" : 2318,
            "type" : "VEC3"
        },
        {
            "bufferView" : 2,
            "componentType" : 5126,
            "count" : 2318,
            "type" : "VEC2"
        },
        {
            "bufferView" : 3,
            "componentType" : 5126,
            "count" : 2318,
            "type" : "VEC4"
        },
        {
            "bufferView" : 4,
            "componentType" : 5123,
            "count" : 6090,
            "type" : "SCALAR"
        }
    ],
    "bufferViews" : [
        {
            "buffer" : 0,
            "byteLength" : 27816,
            "byteOffset" : 0
        },
        {
            "buffer" : 0,
            "byteLength" : 27816,
            "byteOffset" : 27816
        },
        {
            "buffer" : 0,
            "byteLength" : 18544,
            "byteOffset" : 55632
        },
        {
            "buffer" : 0,
            "byteLength" : 37088,
            "byteOffset" : 74176
        },
        {
            "buffer" : 0,
            "byteLength" : 12180,
            "byteOffset" : 111264
        }
    ],
    "buffers" : [
        {
            "byteLength" : 123444,
            "uri" : "water.bin"
        }
    ]
}
